<?xml version="1.0" encoding="utf-8"?>
<!-- Generator: Adobe Illustrator 28.3.0, SVG Export Plug-In . SVG Version: 6.00 Build 0)  -->
<svg version="1.1" id="Layer_1" xmlns="http://www.w3.org/2000/svg" xmlns:xlink="http://www.w3.org/1999/xlink" x="0px" y="0px"
	 viewBox="0 0 250 250" style="enable-background:new 0 0 250 250;" xml:space="preserve">
<g>
	<g>
		<path d="M125,112c7.17,0,13,5.83,13,13c0,7.17-5.83,13-13,13c-7.17,0-13-5.83-13-13C112,117.83,117.83,112,125,112 M125,111
			c-7.73,0-14,6.27-14,14s6.27,14,14,14s14-6.27,14-14S132.73,111,125,111L125,111z"/>
	</g>
	<g>
		<path d="M125,107.73c9.52,0,17.27,7.75,17.27,17.27s-7.75,17.27-17.27,17.27s-17.27-7.75-17.27-17.27S115.48,107.73,125,107.73
			 M125,106.73c-10.09,0-18.27,8.18-18.27,18.27s8.18,18.27,18.27,18.27s18.27-8.18,18.27-18.27S135.09,106.73,125,106.73
			L125,106.73z"/>
	</g>
	<g>
		<path d="M125,103.46c11.88,0,21.54,9.66,21.54,21.54s-9.66,21.54-21.54,21.54s-21.54-9.66-21.54-21.54S113.12,103.46,125,103.46
			 M125,102.46c-12.45,0-22.54,10.09-22.54,22.54s10.09,22.54,22.54,22.54s22.54-10.09,22.54-22.54S137.45,102.46,125,102.46
			L125,102.46z"/>
	</g>
	<g>
		<path d="M125,99.19c14.23,0,25.81,11.58,25.81,25.81s-11.58,25.81-25.81,25.81S99.19,139.23,99.19,125S110.77,99.19,125,99.19
			 M125,98.19c-14.81,0-26.81,12-26.81,26.81s12,26.81,26.81,26.81s26.81-12,26.81-26.81S139.81,98.19,125,98.19L125,98.19z"/>
	</g>
	<g>
		<path d="M125,94.92c16.58,0,30.08,13.49,30.08,30.08s-13.49,30.08-30.08,30.08S94.92,141.58,94.92,125S108.42,94.92,125,94.92
			 M125,93.92c-17.16,0-31.08,13.91-31.08,31.08s13.91,31.08,31.08,31.08s31.08-13.91,31.08-31.08S142.16,93.92,125,93.92L125,93.92
			z"/>
	</g>
	<g>
		<path d="M125,90.65c18.94,0,34.35,15.41,34.35,34.35s-15.41,34.35-34.35,34.35S90.65,143.94,90.65,125S106.06,90.65,125,90.65
			 M125,89.65c-19.52,0-35.35,15.83-35.35,35.35s15.83,35.35,35.35,35.35s35.35-15.83,35.35-35.35S144.52,89.65,125,89.65L125,89.65
			z"/>
	</g>
	<g>
		<path d="M125,86.38c21.29,0,38.62,17.32,38.62,38.62s-17.32,38.62-38.62,38.62S86.38,146.29,86.38,125S103.71,86.38,125,86.38
			 M125,85.38c-21.88,0-39.62,17.74-39.62,39.62s17.74,39.62,39.62,39.62s39.62-17.74,39.62-39.62S146.88,85.38,125,85.38L125,85.38
			z"/>
	</g>
	<g>
		<path d="M125,82.12c23.65,0,42.88,19.24,42.88,42.88s-19.24,42.88-42.88,42.88S82.12,148.65,82.12,125S101.35,82.12,125,82.12
			 M125,81.12c-24.24,0-43.88,19.65-43.88,43.88s19.65,43.88,43.88,43.88s43.88-19.65,43.88-43.88S149.24,81.12,125,81.12L125,81.12
			z"/>
	</g>
	<g>
		<path d="M125,77.85c26,0,47.15,21.15,47.15,47.15S151,172.15,125,172.15S77.85,151,77.85,125S99,77.85,125,77.85 M125,76.85
			c-26.59,0-48.15,21.56-48.15,48.15s21.56,48.15,48.15,48.15s48.15-21.56,48.15-48.15S151.59,76.85,125,76.85L125,76.85z"/>
	</g>
	<g>
		<path d="M125,73.58c28.35,0,51.42,23.07,51.42,51.42s-23.07,51.42-51.42,51.42S73.58,153.35,73.58,125S96.65,73.58,125,73.58
			 M125,72.58c-28.95,0-52.42,23.47-52.42,52.42s23.47,52.42,52.42,52.42s52.42-23.47,52.42-52.42S153.95,72.58,125,72.58L125,72.58
			z"/>
	</g>
	<g>
		<path d="M125,69.31c30.71,0,55.69,24.98,55.69,55.69s-24.98,55.69-55.69,55.69S69.31,155.71,69.31,125S94.29,69.31,125,69.31
			 M125,68.31c-31.31,0-56.69,25.38-56.69,56.69s25.38,56.69,56.69,56.69s56.69-25.38,56.69-56.69S156.31,68.31,125,68.31L125,68.31
			z"/>
	</g>
	<g>
		<path d="M125,65.04c33.06,0,59.96,26.9,59.96,59.96s-26.9,59.96-59.96,59.96S65.04,158.06,65.04,125S91.94,65.04,125,65.04
			 M125,64.04c-33.67,0-60.96,27.29-60.96,60.96s27.29,60.96,60.96,60.96s60.96-27.29,60.96-60.96S158.67,64.04,125,64.04L125,64.04
			z"/>
	</g>
	<g>
		<path d="M125,60.77c35.42,0,64.23,28.81,64.23,64.23s-28.81,64.23-64.23,64.23S60.77,160.42,60.77,125S89.58,60.77,125,60.77
			 M125,59.77c-36.03,0-65.23,29.2-65.23,65.23s29.2,65.23,65.23,65.23s65.23-29.2,65.23-65.23S161.03,59.77,125,59.77L125,59.77z"
			/>
	</g>
	<g>
		<path d="M125,56.5c37.77,0,68.5,30.73,68.5,68.5s-30.73,68.5-68.5,68.5S56.5,162.77,56.5,125S87.23,56.5,125,56.5 M125,55.5
			c-38.38,0-69.5,31.12-69.5,69.5s31.12,69.5,69.5,69.5s69.5-31.12,69.5-69.5S163.38,55.5,125,55.5L125,55.5z"/>
	</g>
	<g>
		<path d="M125,52.23c40.13,0,72.77,32.64,72.77,72.77s-32.64,72.77-72.77,72.77S52.23,165.13,52.23,125S84.87,52.23,125,52.23
			 M125,51.23c-40.74,0-73.77,33.03-73.77,73.77s33.03,73.77,73.77,73.77s73.77-33.03,73.77-73.77S165.74,51.23,125,51.23L125,51.23
			z"/>
	</g>
	<g>
		<path d="M125,47.96c42.48,0,77.04,34.56,77.04,77.04s-34.56,77.04-77.04,77.04S47.96,167.48,47.96,125S82.52,47.96,125,47.96
			 M125,46.96c-43.1,0-78.04,34.94-78.04,78.04S81.9,203.04,125,203.04s78.04-34.94,78.04-78.04S168.1,46.96,125,46.96L125,46.96z"
			/>
	</g>
	<g>
		<path d="M125,43.69c44.83,0,81.31,36.47,81.31,81.31s-36.47,81.31-81.31,81.31S43.69,169.83,43.69,125S80.17,43.69,125,43.69
			 M125,42.69c-45.46,0-82.31,36.85-82.31,82.31s36.85,82.31,82.31,82.31s82.31-36.85,82.31-82.31S170.46,42.69,125,42.69L125,42.69
			z"/>
	</g>
	<g>
		<path d="M125,39.42c47.19,0,85.58,38.39,85.58,85.58s-38.39,85.58-85.58,85.58S39.42,172.19,39.42,125S77.81,39.42,125,39.42
			 M125,38.42c-47.82,0-86.58,38.76-86.58,86.58s38.76,86.58,86.58,86.58s86.58-38.76,86.58-86.58S172.82,38.42,125,38.42L125,38.42
			z"/>
	</g>
	<g>
		<path d="M125,35.15c49.54,0,89.85,40.3,89.85,89.85s-40.3,89.85-89.85,89.85S35.15,174.54,35.15,125S75.46,35.15,125,35.15
			 M125,34.15c-50.17,0-90.85,40.67-90.85,90.85s40.67,90.85,90.85,90.85s90.85-40.67,90.85-90.85S175.17,34.15,125,34.15L125,34.15
			z"/>
	</g>
	<g>
		<path d="M125,30.88c51.9,0,94.12,42.22,94.12,94.12S176.9,219.12,125,219.12S30.88,176.9,30.88,125S73.1,30.88,125,30.88
			 M125,29.88c-52.53,0-95.12,42.58-95.12,95.12s42.58,95.12,95.12,95.12s95.12-42.58,95.12-95.12S177.53,29.88,125,29.88L125,29.88
			z"/>
	</g>
	<g>
		<path d="M125,26.62c54.25,0,98.38,44.14,98.38,98.38s-44.14,98.38-98.38,98.38S26.62,179.25,26.62,125S70.75,26.62,125,26.62
			 M125,25.62c-54.89,0-99.38,44.5-99.38,99.38s44.5,99.38,99.38,99.38s99.38-44.5,99.38-99.38S179.89,25.62,125,25.62L125,25.62z"
			/>
	</g>
	<g>
		<path d="M125,22.35c56.6,0,102.65,46.05,102.65,102.65S181.6,227.65,125,227.65S22.35,181.6,22.35,125S68.4,22.35,125,22.35
			 M125,21.35C67.75,21.35,21.35,67.75,21.35,125S67.75,228.65,125,228.65S228.65,182.25,228.65,125S182.25,21.35,125,21.35
			L125,21.35z"/>
	</g>
	<g>
		<path d="M125,18.08c28.56,0,55.41,11.12,75.61,31.32c20.2,20.2,31.32,47.05,31.32,75.61s-11.12,55.41-31.32,75.61
			s-47.05,31.32-75.61,31.32s-55.41-11.12-75.61-31.32c-20.2-20.2-31.32-47.05-31.32-75.61S29.2,69.59,49.39,49.39
			C69.59,29.2,96.44,18.08,125,18.08 M125,17.08C65.4,17.08,17.08,65.4,17.08,125S65.4,232.92,125,232.92S232.92,184.6,232.92,125
			S184.6,17.08,125,17.08L125,17.08z"/>
	</g>
	<g>
		<path d="M125,13.81c29.7,0,57.62,11.57,78.62,32.57c21,21,32.57,48.92,32.57,78.62s-11.57,57.62-32.57,78.62
			c-21,21-48.92,32.57-78.62,32.57s-57.62-11.57-78.62-32.57c-21-21-32.57-48.92-32.57-78.62s11.57-57.62,32.57-78.62
			C67.38,25.37,95.3,13.81,125,13.81 M125,12.81C63.04,12.81,12.81,63.04,12.81,125S63.04,237.19,125,237.19
			S237.19,186.96,237.19,125S186.96,12.81,125,12.81L125,12.81z"/>
	</g>
	<g>
		<path d="M125,9.54c30.84,0,59.84,12.01,81.64,33.82c21.81,21.81,33.82,50.8,33.82,81.64s-12.01,59.84-33.82,81.64
			s-50.8,33.82-81.64,33.82s-59.84-12.01-81.64-33.82C21.55,184.84,9.54,155.84,9.54,125s12.01-59.84,33.82-81.64
			C65.16,21.55,94.16,9.54,125,9.54 M125,8.54C60.68,8.54,8.54,60.68,8.54,125S60.68,241.46,125,241.46S241.46,189.32,241.46,125
			S189.32,8.54,125,8.54L125,8.54z"/>
	</g>
	<g>
		<path d="M125,5.27c31.98,0,62.05,12.45,84.66,35.07c22.61,22.61,35.07,52.68,35.07,84.66s-12.45,62.05-35.07,84.66
			c-22.61,22.61-52.68,35.07-84.66,35.07s-62.05-12.45-84.66-35.07C17.72,187.05,5.27,156.98,5.27,125s12.45-62.05,35.07-84.66
			C62.95,17.72,93.02,5.27,125,5.27 M125,4.27C58.32,4.27,4.27,58.32,4.27,125S58.32,245.73,125,245.73S245.73,191.68,245.73,125
			S191.68,4.27,125,4.27L125,4.27z"/>
	</g>
	<g>
		<path d="M125,1c33.12,0,64.26,12.9,87.68,36.32S249,91.88,249,125s-12.9,64.26-36.32,87.68S158.12,249,125,249
			s-64.26-12.9-87.68-36.32S1,158.12,1,125s12.9-64.26,36.32-87.68S91.88,1,125,1 M125,0C55.96,0,0,55.96,0,125s55.96,125,125,125
			s125-55.96,125-125S194.04,0,125,0L125,0z"/>
	</g>
</g>
</svg>
